<svg version="1" xmlns="http://www.w3.org/2000/svg" width="933.333" height="933.333" viewBox="0 0 700.000000 700.000000"><path d="M229.1 145.1c-2.5.5-6.2 1.1-8.4 1.4-6.9 1.1-20.9 5.5-30.5 9.7-28.8 12.6-55.6 38.9-69.1 67.9-3.6 7.8-8.6 21.6-9.6 26.8-.2 1.3-.6 3-.9 3.9-3.5 12-3.7 38.1-.4 54.7.5 2.7 1.2 6.1 1.4 7.5.3 1.4 1.9 6.5 3.5 11.4 8.6 25.7 26.5 50.7 47.7 66.4 5.9 4.4 6.3 4.9 5.7 7.7-3 13-2.9 29 .3 40.3 4.1 14.3 14.1 30.7 24.1 39.5 10.6 9.3 25 16.4 39 19.3 10.8 2.1 27.4 1.5 37.6-1.5 33.8-9.9 57.4-39.8 59.4-75.1.1-1.3 4.3-1.5 32.4-1.6 37.8 0 42.2-.4 55.9-4.4 32.5-9.7 58.7-35.2 69.4-67.7 5.3-16.2 6.4-36.9 2.9-53.8-1.7-8.3-7.1-23.3-10.1-28.2-13.5-22-27.8-35.4-47.4-44.7-10.7-5-16.5-6.8-30.5-9.3-4.3-.8-22.3-.8-27.2 0l-4.3.6-3.6-5.7c-6.5-10.3-11.6-16.5-21.4-26.3-19.2-19-42.4-31.4-70.5-37.5-8.9-1.9-37.9-2.7-45.4-1.3zm33.4 23.3c24.3 3.3 47.7 14.6 65.1 31.3 9.1 8.7 15.5 17.1 23.4 31.1 5.9 10.3 6.6 11.1 8.9 10.7 31.7-5.9 48.8-3.8 69.1 8.4 20.6 12.3 34.9 33.8 38.6 58.1.5 3.9.5 19.2-.1 22.5-5.3 28.8-21.7 50.4-46.8 62-14.9 6.9-18.4 7.3-68.9 7.4-24.9.1-45.4.3-45.6.6-.3.2-.6 6.1-.8 13-.4 18.9-1.8 25.5-7.5 36.5-4.1 7.7-16.4 19.2-24.9 23.3-25.3 12.3-54.3 5.5-71.8-17-3.6-4.6-8.8-15.5-9.7-20-.2-1.5-.7-3.9-1-5.3-.7-3.1-.8-15.8-.1-18.7.3-1.3 1.6-6.5 3-11.7 1.4-5.1 2.6-9.9 2.6-10.5 0-.6-4.8-4.3-10.7-8.3-27.7-18.5-44.8-43.5-51.8-75.4-2.2-9.7-2.7-31.2-1-39.9 2.1-11.2 3-14.8 5.2-21C151 208.6 181 181 219 171c4.8-1.3 6.3-1.5 15-2.6 3-.4 5.6-.7 5.8-.9.5-.4 17.9.3 22.7.9zM528.2 350.5c-14.2 3.9-28 15-33.6 27-14.1 30.1 1.5 64.6 32.8 72.8 38 9.9 72.9-24.5 63.2-62.3-4.6-17.9-19.2-32.7-36.6-37.3-7.4-1.9-19.3-2-25.8-.2zm24.1 24.7c3 1.3 6.5 4 9.2 7.2 21.5 24.5-9.3 59.2-36.6 41.1-16.6-11-15.8-36.8 1.5-46.9 8.1-4.7 17-5.2 25.9-1.4zM421.1 454.6c-28.2 7.6-44.6 37.3-36.1 65.3 4.5 14.6 16.7 27.3 31.9 33.2 4.6 1.8 7.6 2.2 16.6 2.2 6.1 0 11.7-.2 12.5-.5.8-.2 2.6-.8 4-1.2 11.6-3.7 24.4-14.5 29.9-25.3 9.9-19.8 6.9-42.4-7.9-58.6-12.6-13.8-33.1-19.9-50.9-15.1zm24.6 24.4c5.4 2.4 10.4 7.2 13.4 13 1.9 3.6 2.4 6 2.4 12.5 0 9.3-2.6 15.6-8.4 20.7-15.5 13.6-40 6.6-45.7-12.9-6.6-22.8 16.6-42.9 38.3-33.3z"/></svg>