<?xml version="1.0" encoding="UTF-8" standalone="no"?>
<svg
   xmlns:dc="http://purl.org/dc/elements/1.1/"
   xmlns:cc="http://creativecommons.org/ns#"
   xmlns:rdf="http://www.w3.org/1999/02/22-rdf-syntax-ns#"
   xmlns:svg="http://www.w3.org/2000/svg"
   xmlns="http://www.w3.org/2000/svg"
   id="svg4081"
   viewBox="0 0 772.51629 772.51628"
   version="1.1"
   width="772.5163"
   height="772.5163">
  <defs
     id="defs4885" />
  <g
     id="layer1"
     transform="translate(-76.30927,-31.532261)">
    <path
       style="fill:#999999;stroke:none;stroke-width:10.39700031"
       d="m 454.278,160.51201 c -99.484,0 -179.81,80.41 -179.81,179.59 0,31.186 7.9688,60.528 21.938,86.094 l 157.88,264.31 157.88,-264.31 c 13.969,-25.566 21.938,-54.908 21.938,-86.094 0,-99.184 -80.328,-179.59 -179.81,-179.59 z"
       id="path3782" />
  </g>
  <g
     style="fill:#ffffff;fill-opacity:1;stroke:#ffffff;stroke-opacity:1"
     transform="matrix(2.5,0,0,2.5,227.97673,161.87906)"
     id="layer2">
    <path
       style="fill:#ffffff;fill-opacity:1;stroke:#ffffff;stroke-opacity:1"
       class=""
       id="svg_1"
       d="m 100.28497,82.119924 v 0.1 h -6.950001 c -2.04,0 -3.7,-1.66 -3.7,-3.7 0,-2.05 1.659999,-3.700001 3.7,-3.700001 h 5.56 c 2.030001,0 3.700001,-1.669999 3.700001,-3.7 0,-2.059999 -1.67,-3.72 -3.700001,-3.72 -2.030001,0 -3.720001,-1.66 -3.720001,-3.7 0,-2.05 1.66,-3.7 3.700001,-3.7 0.26,0 0.5,0.02 0.75,0.07 5.800001,0.4 10.370001,5.15 10.370001,11.04 0,5.66 -4.24,10.32 -9.72,11 z" />
    <path
       style="fill:#ffffff;fill-opacity:1;stroke:#ffffff;stroke-opacity:1"
       class=""
       id="svg_2"
       d="m 80.374977,59.99001 c -2.04,0 -3.7,-1.65 -3.7,-3.7 0,-2.04 1.66,-3.7 3.7,-3.7 0.26,0 0.5,0.02 0.75,0.07 5.78,0.4 10.36,5.17 10.36,11.05 0,5.66 -4.24,10.33 -9.72,11 v 0.1 H 39.635048 c -2.04,0 -3.7,1.67 -3.7,3.7 0,2.06 1.65,3.72 3.7,3.72 h 42.139999 v 0.1 c 5.47,0.68 9.7,5.35 9.7,11 0,5.900001 -4.57,10.65 -10.35,11.05 -0.25,0.04 -0.5,0.07 -0.75,0.07 -2.04,0 -3.7,-1.67 -3.7,-3.7 0,-2.059999 1.66,-3.719999 3.7,-3.719999 2.04,0 3.7,-1.66 3.7,-3.7 0,-2.05 -1.66,-3.700001 -3.7,-3.700001 H 38.235039 v -0.1 c -5.47,-0.7 -9.7,-5.349999 -9.7,-11.02 0,-1.95 0.53,-3.76 1.42,-5.35 -11.600001,-4.010027 -19.950004,-15.01 -19.950004,-27.970007 0,-16.370031 13.269989,-29.640015 29.630013,-29.640015 11.12,0 20.799999,6.13 25.860001,15.2 1.22,-0.22 2.47,-0.38 3.76,-0.38 10.92,0 19.979999,7.88 21.85,18.26 -2.57,-1.84 -5.64,-3.05 -8.97,-3.36 -2.55,-4.48 -7.35,-7.5 -12.87,-7.5 -2.96,0 -5.7,0.9 -8.03,2.4 -2.28,-9.85 -11.06,-17.200001 -21.6,-17.200001 -12.270032,-0.02001 -22.230012,9.929985 -22.230012,22.180019 0,12.28 9.96,22.23 22.229999,22.23 h 40.740002 c 2.04,0 3.7,-1.66 3.7,-3.7 0,-2.05 -1.65,-3.7 -3.7,-3.7 z" />
  </g>
</svg>
